Coordinates
version=1
nRows=21
nColumns=22
inDegrees=yes

Units are S.I. units (second, meters, Newtons, ...)
If the header above contains a line with 'inDegrees', this indicates whether rotational values are in degrees (yes) or radians (no).

endheader
time	pelvis_tilt	pelvis_list	pelvis_rotation	pelvis_tx	pelvis_ty	pelvis_tz	hip_flexion_r	hip_adduction_r	hip_rotation_r	knee_angle_r	ankle_angle_r	subtalar_angle_r	hip_flexion_l	hip_adduction_l	hip_rotation_l	knee_angle_l	ankle_angle_l	subtalar_angle_l	lumbar_extension	lumbar_bending	lumbar_rotation
      3.85000000	      2.14268630	     -2.44100353	    -91.39087601	      0.34206885	      1.00706886	      0.88897289	      5.18194459	     -7.83153327	     -0.27439736	    -59.11370061	     -4.48745996	      5.68816966	     12.83839395	     -0.12633363	     -5.45310571	    -18.20549966	      3.83343775	     -1.75247711	     -2.30675232	     -7.12813335	      2.60387896
      3.86000000	      2.07216235	     -2.36454686	    -91.65681666	      0.34425467	      1.00810268	      0.89452431	      6.26080404	     -7.84446821	     -0.38428670	    -59.16491379	     -2.96861609	      4.67838570	     12.46072002	     -0.07105544	     -5.70665872	    -18.03565877	      4.04592842	     -1.88973298	     -2.46523764	     -7.02955966	      2.36118490
      3.87000000	      1.96874797	     -2.29325229	    -91.91864356	      0.34631481	      1.00914205	      0.89988205	      7.27715149	     -7.81564416	     -0.56638353	    -58.97286164	     -1.49846186	      3.66893478	     12.07762262	     -0.05221866	     -5.92390841	    -17.84726358	      4.22618425	     -2.02048633	     -2.63502618	     -6.89390890	      2.12121449
      3.88000000	      1.85118220	     -2.21721839	    -92.17695271	      0.34826863	      1.01016834	      0.90505175	      8.23970190	     -7.76929759	     -0.81767269	    -58.54551461	     -0.10221115	      2.69250103	     11.69224784	     -0.05033316	     -6.12822095	    -17.62356647	      4.37163278	     -2.14716987	     -2.80547606	     -6.74105397	      1.88398400
      3.89000000	      1.72517809	     -2.14003322	    -92.42841626	      0.35012945	      1.01117650	      0.91006988	      9.13824869	     -7.72101263	     -1.15262973	    -57.89173426	      1.21684125	      1.81082722	     11.30314462	     -0.06087487	     -6.33352227	    -17.37470615	      4.49933849	     -2.26871818	     -2.97469883	     -6.57761544	      1.64259937
      3.90000000	      1.59223269	     -2.06043584	    -92.66835866	      0.35191093	      1.01216121	      0.91495556	      9.96810131	     -7.67393599	     -1.57519179	    -57.02118497	      2.45185210	      1.04494310	     10.91106592	     -0.08000172	     -6.53351929	    -17.09972240	      4.61260097	     -2.38411157	     -3.13973014	     -6.40550514	      1.40293069
      3.91000000	      1.45565975	     -1.98187294	    -92.88729789	      0.35363325	      1.01310766	      0.91970705	     10.72447171	     -7.63375925	     -2.09054156	    -55.95332818	      3.61725479	      0.40561551	     10.52067507	     -0.10397209	     -6.72948584	    -16.81368174	      4.74057785	     -2.49424188	     -3.30692378	     -6.22825177	      1.15462622
      3.92000000	      1.30392732	     -1.89745633	    -93.09496133	      0.35524690	      1.01403278	      0.92434649	     11.40670893	     -7.56766124	     -2.66588711	    -54.69117507	      4.69377431	     -0.16224086	     10.12675246	     -0.14560996	     -6.90328978	    -16.49460687	      4.81340400	     -2.59955769	     -3.46292809	     -6.03736386	      0.91383327
      3.93000000	      1.14428890	     -1.81427717	    -93.27982844	      0.35678346	      1.01491006	      0.92887504	     12.01042023	     -7.49143809	     -3.31518239	    -53.26417670	      5.70831103	     -0.61364347	      9.73954720	     -0.19829013	     -7.06941181	    -16.17677815	      4.89923216	     -2.69973226	     -3.61730524	     -5.84032135	      0.67663278
      3.94000000	      0.97485916	     -1.72601305	    -93.44550039	      0.35821097	      1.01573673	      0.93329426	     12.54273469	     -7.38335012	     -3.99868683	    -51.69080851	      6.66064933	     -0.94690516	      9.36097793	     -0.26661161	     -7.23148418	    -15.84854785	      4.98491929	     -2.79079312	     -3.76124527	     -5.63620687	      0.43583200
      3.95000000	      0.79148543	     -1.63581033	    -93.58828178	      0.35953564	      1.01650951	      0.93760466	     13.00138916	     -7.23589494	     -4.70951240	    -49.99324583	      7.55409940	     -1.16952520	      8.99373066	     -0.35447609	     -7.38403237	    -15.52399935	      5.08599145	     -2.87610797	     -3.89929703	     -5.42244695	      0.20424886
      3.96000000	      0.59323490	     -1.54370272	    -93.71383573	      0.36073137	      1.01722806	      0.94180907	     13.38873366	     -7.03563872	     -5.41296202	    -48.19173063	      8.39125327	     -1.28036278	      8.63926985	     -0.46587732	     -7.52941057	    -15.20627212	      5.19502107	     -2.95467884	     -4.02793172	     -5.19868048	     -0.02232363
      3.97000000	      0.37848158	     -1.44966155	    -93.82005426	      0.36180019	      1.01789097	      0.94589766	     13.70972819	     -6.77502478	     -6.08629515	    -46.31188918	      9.17066765	     -1.27004423	      8.30110610	     -0.60237136	     -7.66711355	    -14.90028409	      5.32154781	     -3.02518362	     -4.14949251	     -4.96323437	     -0.24221236
      3.98000000	      0.14507116	     -1.35875920	    -93.90864891	      0.36274331	      1.01851112	      0.94987984	     13.96074546	     -6.45172318	     -6.71273773	    -44.37338440	      9.88655434	     -1.12362180	      7.97438770	     -0.76688478	     -7.79378601	    -14.60922343	      5.45842313	     -3.08618210	     -4.26650881	     -4.71374621	     -0.44873227
      3.99000000	     -0.09963217	     -1.26046322	    -93.98223556	      0.36355132	      1.01906283	      0.95374646	     14.16355321	     -6.07169022	     -7.26962687	    -42.40977973	     10.54898976	     -0.84836338	      7.67615498	     -0.95402210	     -7.91692908	    -14.34258744	      5.62700643	     -3.13094516	     -4.36653721	     -4.45978358	     -0.63734065
      4.00000000	     -0.35372602	     -1.15971906	    -94.03936454	      0.36424343	      1.01955893	      0.95750531	     14.31625783	     -5.64113547	     -7.74156847	    -40.44387301	     11.14514841	     -0.45736262	      7.40314252	     -1.16079700	     -8.03106310	    -14.10568197	      5.81989579	     -3.15843794	     -4.45311251	     -4.20032845	     -0.80913164
      4.01000000	     -0.60660214	     -1.06971080	    -94.08403838	      0.36482932	      1.02002998	      0.96117978	     14.41028940	     -5.18523095	     -8.13778830	    -38.50255895	     11.67549678	      0.11384874	      7.13273267	     -1.37188485	     -8.12178668	    -13.88273823	      5.99529501	     -3.15611750	     -4.53621027	     -3.95019269	     -0.93318955
      4.02000000	     -0.85876114	     -0.97696612	    -94.11027698	      0.36531073	      1.02044087	      0.96475422	     14.46603762	     -4.69887399	     -8.42673297	    -36.61340714	     12.13576797	      0.73591558	      6.89264773	     -1.59214008	     -8.20448657	    -13.69738540	      6.20818416	     -3.13574592	     -4.60246407	     -3.70447254	     -1.06321229
      4.03000000	     -1.12338987	     -0.87874466	    -94.11912065	      0.36570369	      1.02078789	      0.96825113	     14.48738209	     -4.18036866	     -8.63577927	    -34.79604854	     12.48029113	      1.26401355	      6.69311246	     -1.83681945	     -8.28378002	    -13.57008365	      6.47114892	     -3.12381455	     -4.64465815	     -3.44387825	     -1.17971047
      4.04000000	     -1.37158811	     -0.80976328	    -94.10744456	      0.36603738	      1.02114335	      0.97170964	     14.44127810	     -3.67858787	     -8.77195265	    -33.07507228	     12.72104561	      1.90284133	      6.47160681	     -2.06517901	     -8.32812939	    -13.44874546	      6.71026628	     -3.08392477	     -4.69573024	     -3.20646698	     -1.27206934
      4.05000000	     -1.57489259	     -0.76732186	    -94.08243474	      0.36634004	      1.02148956	      0.97514445	     14.34564498	     -3.23252969	     -8.83094578	    -31.48883057	     12.89097326	      2.64588643	      6.22163690	     -2.24197946	     -8.32849096	    -13.31521506	      6.90897819	     -3.00521683	     -4.74744962	     -3.01905823	     -1.32981642
